<svg width="150" height="169" viewBox="0 0 150 169" fill="none" xmlns="http://www.w3.org/2000/svg">
<g clip-path="url(#clip0)">
<path d="M83.8239 39.9491H82.9002V14.6452C82.9002 10.7611 81.3572 7.03601 78.6107 4.28949C75.8642 1.54298 72.1392 4.90104e-06 68.255 0H14.6452C12.722 -4.85341e-06 10.8176 0.3788 9.04073 1.11479C7.26389 1.85077 5.64941 2.92953 4.28947 4.28946C2.92954 5.64939 1.85078 7.26386 1.11478 9.0407C0.378788 10.8175 -2.62708e-05 12.7219 -3.05176e-05 14.6452V153.464C-3.23376e-05 155.388 0.378771 157.292 1.11476 159.069C1.85075 160.846 2.92951 162.46 4.28945 163.82C5.64938 165.18 7.26385 166.259 9.04069 166.995C10.8175 167.731 12.7219 168.11 14.6452 168.11H68.2549C72.1391 168.11 75.8642 166.567 78.6107 163.82C81.3572 161.074 82.9002 157.349 82.9002 153.464V57.9609H83.8239V39.9491Z" fill="#6D6D6D"/>
<path d="M68.8459 3.81008H61.8481C62.1699 4.59906 62.2927 5.45507 62.2058 6.30271C62.1188 7.15035 61.8247 7.9636 61.3495 8.67082C60.8742 9.37804 60.2323 9.95752 59.4803 10.3582C58.7283 10.7589 57.8893 10.9685 57.0372 10.9686H26.3248C25.4728 10.9685 24.6337 10.7589 23.8818 10.3582C23.1298 9.95752 22.4878 9.37804 22.0126 8.67082C21.5373 7.96359 21.2432 7.15034 21.1563 6.3027C21.0693 5.45506 21.1922 4.59904 21.514 3.81006H14.978C12.0773 3.81006 9.29549 4.96233 7.24442 7.01339C5.19336 9.06445 4.04108 11.8463 4.04108 14.7469V153.363C4.04107 156.263 5.19335 159.045 7.24441 161.096C9.29547 163.147 12.0773 164.299 14.9779 164.299H68.8459C70.2822 164.299 71.7044 164.016 73.0313 163.467C74.3582 162.917 75.5639 162.112 76.5795 161.096C77.595 160.08 78.4006 158.875 78.9503 157.548C79.4999 156.221 79.7828 154.799 79.7828 153.363V14.7469C79.7828 13.3107 79.4999 11.8885 78.9503 10.5616C78.4006 9.23466 77.595 8.02898 76.5795 7.0134C75.5639 5.99782 74.3582 5.19222 73.0313 4.64259C71.7043 4.09296 70.2822 3.81008 68.8459 3.81008Z" fill="white"/>
<path d="M75.3378 112.681H10.7485C10.4314 112.681 10.1274 112.555 9.90319 112.331C9.67896 112.106 9.55283 111.802 9.55246 111.485V95.4636C9.55283 95.1465 9.67896 94.8425 9.90319 94.6183C10.1274 94.3941 10.4314 94.2679 10.7485 94.2676H75.3378C75.6549 94.2679 75.9589 94.3941 76.1832 94.6183C76.4074 94.8425 76.5335 95.1465 76.5339 95.4636V111.486C76.5335 111.803 76.4073 112.107 76.1831 112.331C75.9588 112.555 75.6549 112.681 75.3378 112.681ZM10.7485 94.746C10.5582 94.7461 10.3758 94.8218 10.2413 94.9564C10.1067 95.0909 10.031 95.2734 10.0308 95.4636V111.486C10.031 111.676 10.1067 111.858 10.2413 111.993C10.3758 112.127 10.5582 112.203 10.7485 112.203H75.3378C75.5281 112.203 75.7105 112.127 75.8451 111.993C75.9796 111.858 76.0553 111.676 76.0555 111.486V95.4636C76.0553 95.2734 75.9796 95.0909 75.8451 94.9564C75.7105 94.8218 75.5281 94.7461 75.3378 94.746H10.7485Z" fill="#6D6D6D"/>
<path d="M19.121 108.498C21.8955 108.498 24.1446 106.249 24.1446 103.474C24.1446 100.7 21.8955 98.4507 19.121 98.4507C16.3466 98.4507 14.0974 100.7 14.0974 103.474C14.0974 106.249 16.3466 108.498 19.121 108.498Z" fill="#6D6D6D"/>
<path d="M30.7232 100.125C30.5036 100.129 30.2941 100.219 30.1401 100.375C29.9861 100.532 29.8997 100.743 29.8997 100.963C29.8997 101.182 29.9861 101.393 30.1401 101.55C30.2941 101.706 30.5036 101.796 30.7232 101.8H70.1943C70.4164 101.804 70.631 101.72 70.791 101.566C70.9511 101.412 71.0434 101.201 71.0477 100.979C71.052 100.757 70.9679 100.542 70.8139 100.382C70.6599 100.222 70.4487 100.13 70.2266 100.125L70.2218 100.125C70.2127 100.125 70.2035 100.125 70.1943 100.125H30.7232Z" fill="#6D6D6D"/>
<path d="M30.7232 105.149C30.5036 105.153 30.2941 105.242 30.1401 105.399C29.9861 105.556 29.8997 105.767 29.8997 105.986C29.8997 106.206 29.9861 106.417 30.1401 106.573C30.2941 106.73 30.5036 106.82 30.7232 106.824H70.1943C70.416 106.827 70.6299 106.742 70.789 106.587C70.9481 106.433 71.0396 106.222 71.0432 106C71.0468 105.778 70.9624 105.564 70.8084 105.405C70.6544 105.245 70.4435 105.153 70.2218 105.149C70.2127 105.149 70.2035 105.149 70.1943 105.149H30.7232Z" fill="#6D6D6D"/>
<path d="M75.3378 139.474H10.7485C10.4314 139.474 10.1274 139.347 9.90319 139.123C9.67896 138.899 9.55283 138.595 9.55246 138.278V122.256C9.55283 121.939 9.67896 121.635 9.90319 121.411C10.1274 121.187 10.4314 121.06 10.7485 121.06H75.3378C75.6549 121.06 75.9589 121.187 76.1832 121.411C76.4074 121.635 76.5335 121.939 76.5339 122.256V138.278C76.5335 138.595 76.4073 138.899 76.1831 139.123C75.9588 139.347 75.6549 139.474 75.3378 139.474ZM10.7485 121.538C10.5582 121.539 10.3758 121.614 10.2413 121.749C10.1067 121.883 10.031 122.066 10.0308 122.256V138.278C10.031 138.468 10.1067 138.651 10.2413 138.785C10.3758 138.92 10.5582 138.996 10.7485 138.996H75.3378C75.5281 138.996 75.7105 138.92 75.8451 138.785C75.9796 138.651 76.0553 138.468 76.0555 138.278V122.256C76.0553 122.066 75.9796 121.883 75.8451 121.749C75.7105 121.614 75.5281 121.539 75.3378 121.538H10.7485Z" fill="#6D6D6D"/>
<path d="M19.121 135.291C21.8955 135.291 24.1446 133.041 24.1446 130.267C24.1446 127.493 21.8955 125.243 19.121 125.243C16.3466 125.243 14.0974 127.493 14.0974 130.267C14.0974 133.041 16.3466 135.291 19.121 135.291Z" fill="#6D6D6D"/>
<path d="M30.7232 126.918C30.5036 126.922 30.2941 127.012 30.1401 127.168C29.9861 127.325 29.8997 127.536 29.8997 127.755C29.8997 127.975 29.9861 128.186 30.1401 128.342C30.2941 128.499 30.5036 128.589 30.7232 128.593H70.1943C70.416 128.596 70.6299 128.511 70.789 128.356C70.9481 128.202 71.0396 127.991 71.0432 127.769C71.0468 127.547 70.9624 127.333 70.8084 127.174C70.6544 127.014 70.4435 126.922 70.2218 126.918C70.2127 126.918 70.2035 126.918 70.1943 126.918H30.7232Z" fill="#6D6D6D"/>
<path d="M30.7232 131.942C30.5036 131.945 30.2941 132.035 30.1401 132.192C29.9861 132.348 29.8997 132.559 29.8997 132.779C29.8997 132.999 29.9861 133.21 30.1401 133.366C30.2941 133.523 30.5036 133.613 30.7232 133.616H70.1943C70.416 133.619 70.6299 133.534 70.789 133.38C70.9481 133.226 71.0396 133.014 71.0432 132.793C71.0468 132.571 70.9624 132.357 70.8084 132.197C70.6544 132.038 70.4435 131.946 70.2218 131.942C70.2127 131.942 70.2035 131.942 70.1943 131.942H30.7232Z" fill="#6D6D6D"/>
<path d="M41.6839 79.4339C35.6592 79.4364 29.8802 77.0455 25.6183 72.7872C21.3564 68.5288 18.9607 62.7518 18.9582 56.7271V56.7082C18.9582 56.6606 18.9582 56.6105 18.9609 56.5629C19.0302 44.1173 29.2243 33.9822 41.6839 33.9822C47.7112 33.9815 53.4918 36.3751 57.7542 40.6366C62.0166 44.898 64.4116 50.6781 64.4122 56.7053C64.4129 62.7326 62.0193 68.5132 57.7579 72.7756C53.4964 77.038 47.7163 79.433 41.6891 79.4337H41.6839V79.4339ZM41.6839 34.4601C35.8104 34.4732 30.1793 36.8036 26.0142 40.9449C21.849 45.0862 19.4864 50.7038 19.4395 56.5772C19.437 56.628 19.437 56.6696 19.437 56.7075C19.4365 61.1081 20.7409 65.4101 23.1853 69.0695C25.6297 72.7288 29.1044 75.5811 33.1698 77.2656C37.2353 78.9502 41.709 79.3914 46.0252 78.5334C50.3414 77.6754 54.3063 75.5568 57.4184 72.4454C60.5305 69.3341 62.6502 65.3697 63.5092 61.0538C64.3683 56.7378 63.9282 52.2639 62.2446 48.198C60.5611 44.1321 57.7097 40.6568 54.051 38.2115C50.3923 35.7661 46.0906 34.4606 41.6899 34.4601H41.6839Z" fill="#6D6D6D"/>
<path d="M72.7883 106.912C77.8912 106.912 82.0279 102.775 82.0279 97.6722C82.0279 92.5693 77.8912 88.4326 72.7883 88.4326C67.6854 88.4326 63.5486 92.5693 63.5486 97.6722C63.5486 102.775 67.6854 106.912 72.7883 106.912Z" fill="white"/>
<path d="M69.5793 101.829C69.5634 101.829 69.5476 101.829 69.5317 101.829H64.5654C63.9352 101.819 63.3343 101.562 62.8921 101.113C62.4499 100.663 62.2019 100.059 62.2017 99.4284C62.2014 98.7981 62.4489 98.193 62.8907 97.7436C63.3325 97.2942 63.9333 97.0365 64.5635 97.026H69.5339C69.5583 97.0255 69.5848 97.0255 69.6111 97.026C70.245 97.0347 70.8498 97.2938 71.2935 97.7466C71.7372 98.1995 71.9839 98.8094 71.9797 99.4434C71.9755 100.077 71.7208 100.684 71.2711 101.131C70.8215 101.578 70.2133 101.829 69.5793 101.829Z" fill="#412FF8"/>
<path d="M150 167.547H75.1516V168.065H150V167.547Z" fill="#3F3D56"/>
<path d="M79.7632 123.749C79.7044 123.657 79.6556 123.56 79.6177 123.458L78.425 120.264C78.2862 119.891 78.301 119.478 78.4663 119.116C78.6315 118.754 78.9336 118.472 79.3063 118.332L105.926 108.392C106.299 108.253 106.712 108.268 107.074 108.433C107.436 108.599 107.718 108.901 107.858 109.274L109.051 112.468C109.119 112.652 109.151 112.849 109.144 113.046C109.137 113.243 109.092 113.437 109.01 113.616C108.928 113.795 108.812 113.957 108.667 114.091C108.523 114.226 108.354 114.33 108.169 114.399L81.5495 124.339C81.229 124.459 80.8773 124.465 80.5525 124.358C80.2277 124.251 79.9493 124.036 79.7632 123.749Z" fill="#412FF8"/>
<path d="M105.841 107.567L95.0165 111.884C94.6754 111.986 94.3869 112.216 94.2108 112.526C94.0348 112.835 93.9847 113.201 94.0711 113.547L95.3273 118.576C95.3769 118.775 95.47 118.96 95.5997 119.119C95.7295 119.277 95.8928 119.405 96.0778 119.493C96.2628 119.581 96.465 119.626 96.6698 119.627C96.8746 119.627 97.0769 119.582 97.2622 119.495L108.117 114.385C108.461 114.256 108.74 113.996 108.892 113.662C109.045 113.328 109.059 112.947 108.931 112.603L107.626 108.381C107.497 108.037 107.237 107.758 106.902 107.605C106.568 107.452 106.186 107.439 105.841 107.567Z" fill="#2F2E41"/>
<path d="M125.652 138.904C125.312 138.943 124.969 138.865 124.679 138.682C124.39 138.5 124.171 138.224 124.06 137.901L114.794 111.039C114.729 110.853 114.702 110.656 114.714 110.459C114.726 110.262 114.777 110.07 114.863 109.892C114.949 109.715 115.07 109.557 115.217 109.426C115.365 109.295 115.537 109.195 115.723 109.13L118.946 108.019C119.323 107.889 119.735 107.914 120.093 108.088C120.451 108.263 120.725 108.572 120.855 108.948L130.121 135.81C130.251 136.187 130.225 136.599 130.051 136.957C129.877 137.315 129.568 137.589 129.191 137.719L125.969 138.831C125.866 138.866 125.76 138.891 125.652 138.904Z" fill="#412FF8"/>
<path d="M121.546 108.488L125.102 119.586C125.24 119.915 125.246 120.284 125.119 120.617C124.992 120.949 124.742 121.221 124.421 121.374L119.741 123.605C119.556 123.693 119.354 123.739 119.149 123.739C118.944 123.74 118.742 123.695 118.556 123.608C118.371 123.522 118.207 123.395 118.076 123.237C117.946 123.079 117.852 122.894 117.801 122.696L114.838 111.071C114.718 110.723 114.742 110.343 114.902 110.012C115.063 109.682 115.348 109.429 115.695 109.308L119.782 107.629C120.13 107.51 120.511 107.533 120.842 107.694C121.172 107.855 121.426 108.141 121.546 108.488Z" fill="#2F2E41"/>
<path d="M110.778 167.7H107.369C106.971 167.699 106.589 167.541 106.308 167.259C106.026 166.978 105.868 166.596 105.868 166.198V137.783C105.868 137.385 106.026 137.003 106.308 136.722C106.589 136.44 106.971 136.282 107.369 136.281H110.778C111.176 136.282 111.558 136.44 111.839 136.722C112.121 137.003 112.279 137.385 112.28 137.783V166.198C112.279 166.596 112.121 166.978 111.839 167.259C111.558 167.541 111.176 167.699 110.778 167.7Z" fill="#2F2E41"/>
<path d="M117.521 167.7H114.112C113.714 167.699 113.332 167.541 113.051 167.259C112.769 166.978 112.611 166.596 112.611 166.198V137.783C112.611 137.385 112.769 137.003 113.051 136.722C113.332 136.44 113.714 136.282 114.112 136.281H117.521C117.919 136.282 118.301 136.44 118.583 136.722C118.864 137.003 119.022 137.385 119.023 137.783V166.198C119.022 166.596 118.864 166.978 118.583 167.259C118.301 167.541 117.919 167.699 117.521 167.7Z" fill="#2F2E41"/>
<path d="M120.331 141.124H104.84C104.412 141.123 104.001 140.953 103.697 140.649C103.394 140.346 103.224 139.935 103.223 139.507V114.342C103.223 111.859 104.21 109.477 105.966 107.721C107.721 105.966 110.103 104.979 112.586 104.979C115.069 104.979 117.45 105.966 119.206 107.721C120.962 109.477 121.948 111.859 121.948 114.342V139.507C121.948 139.935 121.777 140.346 121.474 140.649C121.171 140.953 120.76 141.123 120.331 141.124Z" fill="#CCCCCC"/>
<path d="M122.663 147.279H114.809V102.894L114.955 102.933C117.167 103.541 119.119 104.856 120.511 106.679C121.903 108.502 122.659 110.731 122.663 113.025V147.279Z" fill="#2F2E41"/>
<path d="M109.724 147.279H101.87V113.025C101.874 110.731 102.63 108.502 104.022 106.679C105.415 104.856 107.366 103.541 109.578 102.933L109.724 102.894V147.279Z" fill="#2F2E41"/>
<path d="M112.468 99.7739C119.296 99.7739 124.831 94.239 124.831 87.4115C124.831 80.5839 119.296 75.0491 112.468 75.0491C105.641 75.0491 100.106 80.5839 100.106 87.4115C100.106 94.239 105.641 99.7739 112.468 99.7739Z" fill="#412FF8"/>
<path d="M126.445 84.5654C126.445 84.5654 127.138 65.3932 118.129 71.63C118.129 71.63 112.932 54.1902 100.228 80.2921L96.5319 83.9879C96.5319 83.9879 113.163 81.678 128.64 88.8387L126.445 84.5654Z" fill="#2F2E41"/>
<path d="M112.657 93.5338C111.893 93.5126 110.943 93.4861 110.211 92.9512C109.993 92.7855 109.814 92.574 109.686 92.3317C109.558 92.0894 109.485 91.8221 109.472 91.5485C109.458 91.3541 109.49 91.1592 109.565 90.9792C109.639 90.7991 109.755 90.6388 109.901 90.5106C110.284 90.1875 110.842 90.1117 111.444 90.2886L110.821 85.7321L111.278 85.6694L112.011 91.0261L111.629 90.8507C111.186 90.6474 110.578 90.544 110.2 90.8634C110.107 90.9469 110.034 91.0507 109.988 91.1667C109.942 91.2827 109.923 91.4078 109.933 91.5323C109.945 91.7359 109.999 91.9347 110.094 92.1151C110.189 92.2956 110.322 92.4535 110.483 92.5781C111.053 92.9943 111.811 93.048 112.67 93.072L112.657 93.5338Z" fill="#2F2E41"/>
<path d="M108.557 86.1252H106.069V86.5872H108.557V86.1252Z" fill="#2F2E41"/>
<path d="M116.411 86.1252H113.923V86.5872H116.411V86.1252Z" fill="#2F2E41"/>
<path d="M84.9053 124.927C84.5719 125.082 84.1907 125.098 83.8455 124.971C83.5003 124.845 83.2195 124.587 83.0648 124.253L75.0931 107.071C74.9385 106.738 74.9226 106.357 75.049 106.012C75.1754 105.666 75.4337 105.386 75.7671 105.231C76.1005 105.076 76.4817 105.06 76.8269 105.187C77.172 105.313 77.4528 105.571 77.6076 105.905L85.5793 123.087C85.7339 123.42 85.7499 123.801 85.6235 124.147C85.4971 124.492 85.2388 124.773 84.9053 124.927Z" fill="#3F3D56"/>
<path d="M76.7151 106.439C76.47 106.439 76.235 106.342 76.0618 106.168C75.8885 105.995 75.7911 105.76 75.7911 105.515V93.7454H64.2416C63.9966 93.7454 63.7616 93.648 63.5883 93.4748C63.415 93.3015 63.3177 93.0665 63.3177 92.8214C63.3177 92.5764 63.415 92.3414 63.5883 92.1681C63.7616 91.9948 63.9966 91.8975 64.2416 91.8975H76.7151C76.9601 91.8975 77.1952 91.9948 77.3684 92.1681C77.5417 92.3414 77.6391 92.5764 77.6391 92.8214V105.515C77.6391 105.76 77.5417 105.995 77.3684 106.168C77.1952 106.342 76.9601 106.439 76.7151 106.439Z" fill="#412FF8"/>
<path d="M76.9336 107.745C74.9444 108.668 72.7261 108.98 70.5594 108.643C68.3927 108.305 66.3748 107.332 64.7608 105.847C63.1469 104.363 62.0095 102.433 61.4924 100.302C60.9753 98.1709 61.1017 95.9343 61.8557 93.8751C62.6097 91.8159 63.9574 90.0265 65.7284 88.7333C67.4993 87.44 69.614 86.7009 71.805 86.6095C73.996 86.5181 76.1649 87.0784 78.0375 88.2197C79.91 89.3609 81.4021 91.0318 82.325 93.021C83.5592 95.689 83.6846 98.7375 82.6739 101.498C81.6632 104.258 79.5988 106.505 76.9336 107.745ZM68.7675 90.1441C67.2756 90.8363 66.0224 91.9553 65.1664 93.3597C64.3105 94.7641 63.8903 96.3908 63.9588 98.0341C64.0274 99.6773 64.5817 101.263 65.5516 102.592C66.5216 103.92 67.8636 104.931 69.408 105.496C70.9524 106.062 72.6299 106.156 74.2282 105.769C75.8265 105.381 77.2739 104.528 78.3873 103.317C79.5008 102.107 80.2303 100.593 80.4837 98.9683C80.737 97.3432 80.5028 95.6795 79.8106 94.1876C78.8804 92.1887 77.1954 90.6404 75.1251 89.8824C73.0549 89.1244 70.7684 89.2185 68.7675 90.1441Z" fill="#3F3D56"/>
</g>
<defs>
<clipPath id="clip0">
<rect width="150" height="168.11" fill="white"/>
</clipPath>
</defs>
</svg>
